solid D1Mini_Case_V01
facet normal -1.8517348643537792e-09 -8.07942628016426e-05 0.9999999967361437
  outer loop
    vertex 32.000001655173705 38.19910664170305 1.5030630485033107
    vertex 34.2000016551737 35.99910664170305 1.5030630485033125
    vertex 42.09999999999999 38.19999999999999 1.503063048503328
  endloop
endfacet
facet normal -1.8517348643537792e-09 -8.07942628016426e-05 0.9999999967361437
  outer loop
    vertex 34.2000016551737 35.99910664170305 1.5030630485033125
    vertex 32.000001655173705 38.19910664170305 1.5030630485033107
    vertex 34.20000099654579 34.00007781005903 1.5000000020184576
  endloop
endfacet
facet normal -1.8517348643537792e-09 -8.07942628016426e-05 0.9999999967361437
  outer loop
    vertex 42.09999999999999 38.19999999999999 1.503063048503328
    vertex 34.2000016551737 35.99910664170305 1.5030630485033125
    vertex 41.1000016551737 35.99910664170306 1.5083490485033164
  endloop
endfacet
facet normal -1.8517348643537792e-09 -8.07942628016426e-05 0.9999999967361437
  outer loop
    vertex 51.10000035339224 -3.887465654253685e-06 1.5000038896050254
    vertex 40.10000035339219 1.0000739228623599 1.4999987063040334
    vertex 40.10000035339219 -3.887465654253685e-06 1.5000038896050254
  endloop
endfacet
facet normal -1.8517348643537792e-09 -8.07942628016426e-05 0.9999999967361437
  outer loop
    vertex 40.10000035339219 1.0000739228623599 1.4999987063040334
    vertex 51.10000035339224 -3.887465654253685e-06 1.5000038896050254
    vertex 40.10000099654579 5.100077810059016 1.5000000020184672
  endloop
endfacet
facet normal -1.8517348643537792e-09 -8.07942628016426e-05 0.9999999967361437
  outer loop
    vertex 40.10000099654579 5.100077810059016 1.5000000020184672
    vertex 51.10000035339224 -3.887465654253685e-06 1.5000038896050254
    vertex 51.10000035339224 0.9999961125343452 1.500003889605024
  endloop
endfacet
facet normal -1.8517348643537792e-09 -8.07942628016426e-05 0.9999999967361437
  outer loop
    vertex 40.10000099654579 5.100077810059016 1.5000000020184672
    vertex 51.10000035339224 0.9999961125343452 1.500003889605024
    vertex 51.10000099654579 5.100077810059016 1.5000000020184672
  endloop
endfacet
facet normal -1.8517348643537792e-09 -8.07942628016426e-05 0.9999999967361437
  outer loop
    vertex 51.10000099654579 5.100077810059016 1.5000000020184672
    vertex 51.10000035339224 0.9999961125343452 1.500003889605024
    vertex 60.20000099654577 1.000077810059035 1.5000000020184665
  endloop
endfacet
facet normal -1.8517348643537792e-09 -8.07942628016426e-05 0.9999999967361437
  outer loop
    vertex 51.10000099654579 5.100077810059016 1.5000000020184672
    vertex 60.20000099654577 1.000077810059035 1.5000000020184665
    vertex 51.10000099654579 7.60007781005902 1.500000002018467
  endloop
endfacet
facet normal -1.8517348643537792e-09 -8.07942628016426e-05 0.9999999967361437
  outer loop
    vertex 51.10000099654579 7.60007781005902 1.500000002018467
    vertex 60.20000099654577 1.000077810059035 1.5000000020184665
    vertex 51.349723366625454 34.00007781005904 1.5052860020184644
  endloop
endfacet
facet normal -1.8517348643537792e-09 -8.07942628016426e-05 0.9999999967361437
  outer loop
    vertex 51.349723366625454 34.00007781005904 1.5052860020184644
    vertex 60.20000099654577 1.000077810059035 1.5000000020184665
    vertex 58.00000099654577 34.00007781005903 1.5000000020184656
  endloop
endfacet
facet normal -1.8517348643537792e-09 -8.07942628016426e-05 0.9999999967361437
  outer loop
    vertex 58.00000099654577 34.00007781005903 1.5000000020184656
    vertex 60.20000099654577 1.000077810059035 1.5000000020184665
    vertex 58.00000165517369 35.99910664170305 1.5030630485033172
  endloop
endfacet
facet normal -1.8517348643537792e-09 -8.07942628016426e-05 0.9999999967361437
  outer loop
    vertex 40.10000035339219 1.0000739228623599 1.4999987063040334
    vertex 32.000001655173705 38.19910664170305 1.5030630485033107
    vertex 32.00000099654579 1.000077810059035 1.5000000020184665
  endloop
endfacet
facet normal -1.8517348643537792e-09 -8.07942628016426e-05 0.9999999967361437
  outer loop
    vertex 32.000001655173705 38.19910664170305 1.5030630485033107
    vertex 40.10000035339219 1.0000739228623599 1.4999987063040334
    vertex 34.20000099654579 34.00007781005903 1.5000000020184576
  endloop
endfacet
facet normal -1.8517348643537792e-09 -8.07942628016426e-05 0.9999999967361437
  outer loop
    vertex 34.20000099654579 34.00007781005903 1.5000000020184576
    vertex 40.10000035339219 1.0000739228623599 1.4999987063040334
    vertex 40.10000099654579 7.600077803331902 1.5001296854500186
  endloop
endfacet
facet normal -1.8517348643537792e-09 -8.07942628016426e-05 0.9999999967361437
  outer loop
    vertex 34.20000099654579 34.00007781005903 1.5000000020184576
    vertex 40.10000099654579 7.600077803331902 1.5001296854500186
    vertex 41.10000099654579 34.00007781005904 1.5052860020184609
  endloop
endfacet
facet normal -1.8517348643537792e-09 -8.07942628016426e-05 0.9999999967361437
  outer loop
    vertex 40.10000099654579 7.600077803331902 1.5001296854500186
    vertex 40.10000035339219 1.0000739228623599 1.4999987063040334
    vertex 40.10000099654579 5.100077810059016 1.5000000020184672
  endloop
endfacet
facet normal -1.8517348643537792e-09 -8.07942628016426e-05 0.9999999967361437
  outer loop
    vertex 41.10000099654579 34.00007781005904 1.5052860020184609
    vertex 40.10000099654579 7.600077803331902 1.5001296854500186
    vertex 51.10000099654579 7.60007781005902 1.500000002018467
  endloop
endfacet
facet normal -1.8517348643537792e-09 -8.07942628016426e-05 0.9999999967361437
  outer loop
    vertex 41.10000099654579 34.00007781005904 1.5052860020184609
    vertex 51.10000099654579 7.60007781005902 1.500000002018467
    vertex 41.1000016551737 35.99910664170306 1.5083490485033164
  endloop
endfacet
facet normal -1.8517348643537792e-09 -8.07942628016426e-05 0.9999999967361437
  outer loop
    vertex 41.1000016551737 35.99910664170306 1.5083490485033164
    vertex 51.10000099654579 7.60007781005902 1.500000002018467
    vertex 42.09999999999999 38.19999999999999 1.503063048503328
  endloop
endfacet
facet normal -1.8517348643537792e-09 -8.07942628016426e-05 0.9999999967361437
  outer loop
    vertex 42.09999999999999 38.19999999999999 1.503063048503328
    vertex 51.10000099654579 7.60007781005902 1.500000002018467
    vertex 42.09999999999999 39.2 1.503063048503328
  endloop
endfacet
facet normal -1.8517348643537792e-09 -8.07942628016426e-05 0.9999999967361437
  outer loop
    vertex 42.09999999999999 39.2 1.503063048503328
    vertex 51.10000099654579 7.60007781005902 1.500000002018467
    vertex 50.1 38.19999999999999 1.503063048503328
  endloop
endfacet
facet normal -1.8517348643537792e-09 -8.07942628016426e-05 0.9999999967361437
  outer loop
    vertex 50.1 38.19999999999999 1.503063048503328
    vertex 51.10000099654579 7.60007781005902 1.500000002018467
    vertex 51.34972402525337 35.99910664170306 1.50834904850332
  endloop
endfacet
facet normal -1.8517348643537792e-09 -8.07942628016426e-05 0.9999999967361437
  outer loop
    vertex 50.1 38.19999999999999 1.503063048503328
    vertex 51.34972402525337 35.99910664170306 1.50834904850332
    vertex 60.200001655173686 38.19910664170305 1.5030630485033236
  endloop
endfacet
facet normal -1.8517348643537792e-09 -8.07942628016426e-05 0.9999999967361437
  outer loop
    vertex 51.34972402525337 35.99910664170306 1.50834904850332
    vertex 51.10000099654579 7.60007781005902 1.500000002018467
    vertex 51.349723366625454 34.00007781005904 1.5052860020184644
  endloop
endfacet
facet normal -1.8517348643537792e-09 -8.07942628016426e-05 0.9999999967361437
  outer loop
    vertex 60.200001655173686 38.19910664170305 1.5030630485033236
    vertex 51.34972402525337 35.99910664170306 1.50834904850332
    vertex 58.00000165517369 35.99910664170305 1.5030630485033172
  endloop
endfacet
facet normal -1.8517348643537792e-09 -8.07942628016426e-05 0.9999999967361437
  outer loop
    vertex 60.200001655173686 38.19910664170305 1.5030630485033236
    vertex 58.00000165517369 35.99910664170305 1.5030630485033172
    vertex 60.20000099654577 1.000077810059035 1.5000000020184665
  endloop
endfacet
facet normal -1.8517348643537792e-09 -8.07942628016426e-05 0.9999999967361437
  outer loop
    vertex 50.1 39.2 1.503063048503328
    vertex 42.09999999999999 39.2 1.503063048503328
    vertex 50.1 38.19999999999999 1.503063048503328
  endloop
endfacet
facet normal 1.0 -0.0 -0.0
  outer loop
    vertex 42.09999999999999 39.2 1.503063048503328
    vertex 42.09999999999999 38.19999999999999 5.5
    vertex 42.09999999999999 38.19999999999999 1.503063048503328
  endloop
endfacet
facet normal 1.0 -0.0 -0.0
  outer loop
    vertex 42.09999999999999 38.19999999999999 5.5
    vertex 42.09999999999999 39.2 1.503063048503328
    vertex 42.09999999999999 39.2 5.5
  endloop
endfacet
facet normal 0.9999999999999982 1.5523207893334895e-13 5.989699600901223e-08
  outer loop
    vertex 40.10000035339219 1.0000739228623599 1.4999987063040334
    vertex 40.099999999999994 -7.049916206369744e-16 7.399999999999998
    vertex 40.10000035339219 -3.887465654253685e-06 1.5000038896050254
  endloop
endfacet
facet normal 0.9999999999999982 1.5523207893334895e-13 5.989699600901223e-08
  outer loop
    vertex 40.099999999999994 -7.049916206369744e-16 7.399999999999998
    vertex 40.10000035339219 1.0000739228623599 1.4999987063040334
    vertex 40.099999999999994 0.9999999999999987 7.399999999999998
  endloop
endfacet
facet normal -1.0 0.0 0.0
  outer loop
    vertex 50.1 39.2 5.5
    vertex 50.1 38.19999999999999 1.503063048503328
    vertex 50.1 38.19999999999999 5.5
  endloop
endfacet
facet normal -1.0 0.0 0.0
  outer loop
    vertex 50.1 38.19999999999999 1.503063048503328
    vertex 50.1 39.2 5.5
    vertex 50.1 39.2 1.503063048503328
  endloop
endfacet
facet normal -0.0 1.0 -0.0
  outer loop
    vertex 31.0 5.099999999999985 5.500000000000001
    vertex 32.000000000000014 5.099999999999985 3.5000000000000004
    vertex 31.0 5.099999999999985 3.5000000000000004
  endloop
endfacet
facet normal -0.0 1.0 -0.0
  outer loop
    vertex 32.000000000000014 5.099999999999985 3.5000000000000004
    vertex 31.0 5.099999999999985 5.500000000000001
    vertex 32.000000000000014 5.099999999999985 5.500000000000001
  endloop
endfacet
facet normal -0.0 -0.0 1.0
  outer loop
    vertex 32.000000000000014 5.099999999999985 3.5000000000000004
    vertex 31.0 7.599999999999992 3.5000000000000004
    vertex 31.0 5.099999999999985 3.5000000000000004
  endloop
endfacet
facet normal -0.0 -0.0 1.0
  outer loop
    vertex 31.0 7.599999999999992 3.5000000000000004
    vertex 32.000000000000014 5.099999999999985 3.5000000000000004
    vertex 32.000000000000014 7.599999999999992 3.5000000000000004
  endloop
endfacet
facet normal 4.2858699858691476e-07 0.9999999999822777 5.9380760965689855e-06
  outer loop
    vertex 32.00000099654579 1.000077810059035 1.5000000020184665
    vertex 40.099999999999994 0.9999999999999987 7.399999999999998
    vertex 40.10000035339219 1.0000739228623599 1.4999987063040334
  endloop
endfacet
facet normal 4.2858699858691476e-07 0.9999999999822777 5.9380760965689855e-06
  outer loop
    vertex 40.099999999999994 0.9999999999999987 7.399999999999998
    vertex 32.00000099654579 1.000077810059035 1.5000000020184665
    vertex 31.999999999999996 0.9999999999999994 11.999999999999995
  endloop
endfacet
facet normal 4.2858699858691476e-07 0.9999999999822777 5.9380760965689855e-06
  outer loop
    vertex 40.099999999999994 0.9999999999999987 7.399999999999998
    vertex 31.999999999999996 0.9999999999999994 11.999999999999995
    vertex 51.099999999999994 1.000000000000001 7.399999999999998
  endloop
endfacet
facet normal 4.2858699858691476e-07 0.9999999999822777 5.9380760965689855e-06
  outer loop
    vertex 51.099999999999994 1.000000000000001 7.399999999999998
    vertex 31.999999999999996 0.9999999999999994 11.999999999999995
    vertex 60.19999999999998 0.9999999999999962 11.999999999999993
  endloop
endfacet
facet normal 4.2858699858691476e-07 0.9999999999822777 5.9380760965689855e-06
  outer loop
    vertex 51.10000035339224 0.9999961125343452 1.500003889605024
    vertex 60.19999999999998 0.9999999999999962 11.999999999999993
    vertex 60.20000099654577 1.000077810059035 1.5000000020184665
  endloop
endfacet
facet normal 4.2858699858691476e-07 0.9999999999822777 5.9380760965689855e-06
  outer loop
    vertex 60.19999999999998 0.9999999999999962 11.999999999999993
    vertex 51.10000035339224 0.9999961125343452 1.500003889605024
    vertex 51.099999999999994 1.000000000000001 7.399999999999998
  endloop
endfacet
facet normal 0.0 -1.0 0.0
  outer loop
    vertex 32.000000000000014 7.599999999999992 5.500000000000001
    vertex 31.0 7.599999999999992 3.5000000000000004
    vertex 32.000000000000014 7.599999999999992 3.5000000000000004
  endloop
endfacet
facet normal 0.0 -1.0 0.0
  outer loop
    vertex 31.0 7.599999999999992 3.5000000000000004
    vertex 32.000000000000014 7.599999999999992 5.500000000000001
    vertex 31.0 7.599999999999992 5.500000000000001
  endloop
endfacet
facet normal -1.0 0.0 0.0
  outer loop
    vertex 31.0 -3.524958103184872e-16 11.999999999999998
    vertex 31.0 5.099999999999985 5.500000000000001
    vertex 31.0 0.0 3.524958103184872e-16
  endloop
endfacet
facet normal -1.0 0.0 0.0
  outer loop
    vertex 31.0 5.099999999999985 5.500000000000001
    vertex 31.0 -3.524958103184872e-16 11.999999999999998
    vertex 31.0 39.2 11.999999999999998
  endloop
endfacet
facet normal -1.0 0.0 0.0
  outer loop
    vertex 31.0 5.099999999999985 5.500000000000001
    vertex 31.0 39.2 11.999999999999998
    vertex 31.0 7.599999999999992 5.500000000000001
  endloop
endfacet
facet normal -1.0 0.0 0.0
  outer loop
    vertex 31.0 7.599999999999992 5.500000000000001
    vertex 31.0 39.2 11.999999999999998
    vertex 31.0 7.599999999999992 3.5000000000000004
  endloop
endfacet
facet normal -1.0 0.0 0.0
  outer loop
    vertex 31.0 0.0 3.524958103184872e-16
    vertex 31.0 5.099999999999985 3.5000000000000004
    vertex 31.0 39.2 3.524958103184872e-16
  endloop
endfacet
facet normal -1.0 0.0 0.0
  outer loop
    vertex 31.0 5.099999999999985 3.5000000000000004
    vertex 31.0 0.0 3.524958103184872e-16
    vertex 31.0 5.099999999999985 5.500000000000001
  endloop
endfacet
facet normal -1.0 0.0 0.0
  outer loop
    vertex 31.0 39.2 3.524958103184872e-16
    vertex 31.0 5.099999999999985 3.5000000000000004
    vertex 31.0 7.599999999999992 3.5000000000000004
  endloop
endfacet
facet normal -1.0 0.0 0.0
  outer loop
    vertex 31.0 39.2 3.524958103184872e-16
    vertex 31.0 7.599999999999992 3.5000000000000004
    vertex 31.0 39.2 11.999999999999998
  endloop
endfacet
facet normal 0.0 0.0 -1.0
  outer loop
    vertex 32.000000000000014 7.599999999999992 5.500000000000001
    vertex 31.0 5.099999999999985 5.500000000000001
    vertex 31.0 7.599999999999992 5.500000000000001
  endloop
endfacet
facet normal 0.0 0.0 -1.0
  outer loop
    vertex 31.0 5.099999999999985 5.500000000000001
    vertex 32.000000000000014 7.599999999999992 5.500000000000001
    vertex 32.000000000000014 5.099999999999985 5.500000000000001
  endloop
endfacet
facet normal 9.33763735943013e-17 -1.0 2.0562255601911758e-16
  outer loop
    vertex 61.19999999999998 0.0 3.524958103184872e-16
    vertex 51.10000035339224 -3.887465654253685e-06 1.5000038896050254
    vertex 31.0 0.0 3.524958103184872e-16
  endloop
endfacet
facet normal 9.33763735943013e-17 -1.0 2.0562255601911758e-16
  outer loop
    vertex 51.10000035339224 -3.887465654253685e-06 1.5000038896050254
    vertex 61.19999999999998 0.0 3.524958103184872e-16
    vertex 61.19999999999998 5.287437154777308e-15 11.999999999999998
  endloop
endfacet
facet normal 9.33763735943013e-17 -1.0 2.0562255601911758e-16
  outer loop
    vertex 51.10000035339224 -3.887465654253685e-06 1.5000038896050254
    vertex 61.19999999999998 5.287437154777308e-15 11.999999999999998
    vertex 51.099999999999994 7.049916206369744e-16 7.399999999999998
  endloop
endfacet
facet normal 9.33763735943013e-17 -1.0 2.0562255601911758e-16
  outer loop
    vertex 51.099999999999994 7.049916206369744e-16 7.399999999999998
    vertex 61.19999999999998 5.287437154777308e-15 11.999999999999998
    vertex 40.099999999999994 -7.049916206369744e-16 7.399999999999998
  endloop
endfacet
facet normal 9.33763735943013e-17 -1.0 2.0562255601911758e-16
  outer loop
    vertex 31.0 0.0 3.524958103184872e-16
    vertex 40.10000035339219 -3.887465654253685e-06 1.5000038896050254
    vertex 31.0 -3.524958103184872e-16 11.999999999999998
  endloop
endfacet
facet normal 9.33763735943013e-17 -1.0 2.0562255601911758e-16
  outer loop
    vertex 40.10000035339219 -3.887465654253685e-06 1.5000038896050254
    vertex 31.0 0.0 3.524958103184872e-16
    vertex 51.10000035339224 -3.887465654253685e-06 1.5000038896050254
  endloop
endfacet
facet normal 9.33763735943013e-17 -1.0 2.0562255601911758e-16
  outer loop
    vertex 31.0 -3.524958103184872e-16 11.999999999999998
    vertex 40.10000035339219 -3.887465654253685e-06 1.5000038896050254
    vertex 40.099999999999994 -7.049916206369744e-16 7.399999999999998
  endloop
endfacet
facet normal 9.33763735943013e-17 -1.0 2.0562255601911758e-16
  outer loop
    vertex 31.0 -3.524958103184872e-16 11.999999999999998
    vertex 40.099999999999994 -7.049916206369744e-16 7.399999999999998
    vertex 61.19999999999998 5.287437154777308e-15 11.999999999999998
  endloop
endfacet
facet normal 0.0 0.0 -1.0
  outer loop
    vertex 61.19999999999998 39.2 3.524958103184872e-16
    vertex 31.0 0.0 3.524958103184872e-16
    vertex 31.0 39.2 3.524958103184872e-16
  endloop
endfacet
facet normal 0.0 0.0 -1.0
  outer loop
    vertex 31.0 0.0 3.524958103184872e-16
    vertex 61.19999999999998 39.2 3.524958103184872e-16
    vertex 61.19999999999998 0.0 3.524958103184872e-16
  endloop
endfacet
facet normal -0.9999999999999678 1.3197741896568172e-11 -2.544222824605144e-07
  outer loop
    vertex 40.100000589470135 7.599997399604238 3.10012968339618
    vertex 40.10000099654579 5.100077810059016 1.5000000020184672
    vertex 40.100000589470135 5.09999740633135 3.0999999999646284
  endloop
endfacet
facet normal -0.9999999999999678 1.3197741896568172e-11 -2.544222824605144e-07
  outer loop
    vertex 40.10000099654579 5.100077810059016 1.5000000020184672
    vertex 40.100000589470135 7.599997399604238 3.10012968339618
    vertex 40.10000099654579 7.600077803331902 1.5001296854500186
  endloop
endfacet
facet normal 0.9999999999999678 3.143169235456517e-23 2.544222831237317e-07
  outer loop
    vertex 51.10000099654579 5.100077810059016 1.5000000020184672
    vertex 51.100000589470135 7.599997406331353 3.099999999964628
    vertex 51.100000589470135 5.09999740633135 3.0999999999646284
  endloop
endfacet
facet normal 0.9999999999999678 3.143169235456517e-23 2.544222831237317e-07
  outer loop
    vertex 51.100000589470135 7.599997406331353 3.099999999964628
    vertex 51.10000099654579 5.100077810059016 1.5000000020184672
    vertex 51.10000099654579 7.60007781005902 1.500000002018467
  endloop
endfacet
facet normal 7.456082673699652e-09 -0.9999999998105498 -1.946536799984308e-05
  outer loop
    vertex 41.10000099654579 34.00007781005904 1.5052860020184609
    vertex 34.199999999999996 34.00000000000001 5.499999999999991
    vertex 34.20000099654579 34.00007781005903 1.5000000020184576
  endloop
endfacet
facet normal 7.456082673699652e-09 -0.9999999998105498 -1.946536799984308e-05
  outer loop
    vertex 34.199999999999996 34.00000000000001 5.499999999999991
    vertex 41.10000099654579 34.00007781005904 1.5052860020184609
    vertex 41.099999999999994 34.00000000000001 5.499999999999994
  endloop
endfacet
facet normal -0.0 -0.0 1.0
  outer loop
    vertex 31.0 -3.524958103184872e-16 11.999999999999998
    vertex 31.999999999999996 0.9999999999999994 11.999999999999995
    vertex 31.0 39.2 11.999999999999998
  endloop
endfacet
facet normal -0.0 -0.0 1.0
  outer loop
    vertex 31.999999999999996 0.9999999999999994 11.999999999999995
    vertex 31.0 -3.524958103184872e-16 11.999999999999998
    vertex 61.19999999999998 5.287437154777308e-15 11.999999999999998
  endloop
endfacet
facet normal -0.0 -0.0 1.0
  outer loop
    vertex 31.999999999999996 0.9999999999999994 11.999999999999995
    vertex 61.19999999999998 5.287437154777308e-15 11.999999999999998
    vertex 60.19999999999998 0.9999999999999962 11.999999999999993
  endloop
endfacet
facet normal -0.0 -0.0 1.0
  outer loop
    vertex 60.19999999999998 0.9999999999999962 11.999999999999993
    vertex 61.19999999999998 5.287437154777308e-15 11.999999999999998
    vertex 60.19999999999998 38.199999999999996 12.0
  endloop
endfacet
facet normal -0.0 -0.0 1.0
  outer loop
    vertex 31.0 39.2 11.999999999999998
    vertex 31.999999999999996 38.199999999999996 12.0
    vertex 61.19999999999998 39.2 11.999999999999998
  endloop
endfacet
facet normal -0.0 -0.0 1.0
  outer loop
    vertex 31.999999999999996 38.199999999999996 12.0
    vertex 31.0 39.2 11.999999999999998
    vertex 31.999999999999996 0.9999999999999994 11.999999999999995
  endloop
endfacet
facet normal -0.0 -0.0 1.0
  outer loop
    vertex 61.19999999999998 39.2 11.999999999999998
    vertex 31.999999999999996 38.199999999999996 12.0
    vertex 60.19999999999998 38.199999999999996 12.0
  endloop
endfacet
facet normal -0.0 -0.0 1.0
  outer loop
    vertex 61.19999999999998 39.2 11.999999999999998
    vertex 60.19999999999998 38.199999999999996 12.0
    vertex 61.19999999999998 5.287437154777308e-15 11.999999999999998
  endloop
endfacet
facet normal 0.0 0.0 -1.0
  outer loop
    vertex 51.099999999999994 1.000000000000001 7.399999999999998
    vertex 40.099999999999994 -7.049916206369744e-16 7.399999999999998
    vertex 40.099999999999994 0.9999999999999987 7.399999999999998
  endloop
endfacet
facet normal 0.0 0.0 -1.0
  outer loop
    vertex 40.099999999999994 -7.049916206369744e-16 7.399999999999998
    vertex 51.099999999999994 1.000000000000001 7.399999999999998
    vertex 51.099999999999994 7.049916206369744e-16 7.399999999999998
  endloop
endfacet
facet normal -7.736063561763466e-09 -0.9999999998105498 -1.946536800363049e-05
  outer loop
    vertex 57.999999999999986 34.00000000000001 5.5
    vertex 51.349723366625454 34.00007781005904 1.5052860020184644
    vertex 58.00000099654577 34.00007781005903 1.5000000020184656
  endloop
endfacet
facet normal -7.736063561763466e-09 -0.9999999998105498 -1.946536800363049e-05
  outer loop
    vertex 51.349723366625454 34.00007781005904 1.5052860020184644
    vertex 57.999999999999986 34.00000000000001 5.5
    vertex 51.34972237007966 34.00000000000001 5.499999999999998
  endloop
endfacet
facet normal -8.888793896106237e-08 0.9999999749884285 -0.00022365852249684143
  outer loop
    vertex 51.34972402525337 35.99910664170306 1.50834904850332
    vertex 57.999999999999986 36.00000000000001 5.499999999999993
    vertex 58.00000165517369 35.99910664170305 1.5030630485033172
  endloop
endfacet
facet normal -8.888793896106237e-08 0.9999999749884285 -0.00022365852249684143
  outer loop
    vertex 57.999999999999986 36.00000000000001 5.499999999999993
    vertex 51.34972402525337 35.99910664170306 1.50834904850332
    vertex 51.34972237007966 36.00000000000001 5.499999999999996
  endloop
endfacet
facet normal -0.0 1.0 -0.0
  outer loop
    vertex 31.0 39.2 3.524958103184872e-16
    vertex 42.09999999999999 39.2 1.503063048503328
    vertex 61.19999999999998 39.2 3.524958103184872e-16
  endloop
endfacet
facet normal -0.0 1.0 -0.0
  outer loop
    vertex 42.09999999999999 39.2 1.503063048503328
    vertex 31.0 39.2 3.524958103184872e-16
    vertex 31.0 39.2 11.999999999999998
  endloop
endfacet
facet normal -0.0 1.0 -0.0
  outer loop
    vertex 42.09999999999999 39.2 1.503063048503328
    vertex 31.0 39.2 11.999999999999998
    vertex 42.09999999999999 39.2 5.5
  endloop
endfacet
facet normal -0.0 1.0 -0.0
  outer loop
    vertex 42.09999999999999 39.2 5.5
    vertex 31.0 39.2 11.999999999999998
    vertex 50.1 39.2 5.5
  endloop
endfacet
facet normal -0.0 1.0 -0.0
  outer loop
    vertex 61.19999999999998 39.2 3.524958103184872e-16
    vertex 50.1 39.2 1.503063048503328
    vertex 61.19999999999998 39.2 11.999999999999998
  endloop
endfacet
facet normal -0.0 1.0 -0.0
  outer loop
    vertex 50.1 39.2 1.503063048503328
    vertex 61.19999999999998 39.2 3.524958103184872e-16
    vertex 42.09999999999999 39.2 1.503063048503328
  endloop
endfacet
facet normal -0.0 1.0 -0.0
  outer loop
    vertex 61.19999999999998 39.2 11.999999999999998
    vertex 50.1 39.2 1.503063048503328
    vertex 50.1 39.2 5.5
  endloop
endfacet
facet normal -0.0 1.0 -0.0
  outer loop
    vertex 61.19999999999998 39.2 11.999999999999998
    vertex 50.1 39.2 5.5
    vertex 31.0 39.2 11.999999999999998
  endloop
endfacet
facet normal 2.6690237080586397e-22 -0.9999999987373518 -5.025232979206297e-05
  outer loop
    vertex 51.100000589470135 5.09999740633135 3.0999999999646284
    vertex 40.10000099654579 5.100077810059016 1.5000000020184672
    vertex 51.10000099654579 5.100077810059016 1.5000000020184672
  endloop
endfacet
facet normal 2.6690237080586397e-22 -0.9999999987373518 -5.025232979206297e-05
  outer loop
    vertex 40.10000099654579 5.100077810059016 1.5000000020184672
    vertex 51.100000589470135 5.09999740633135 3.0999999999646284
    vertex 40.100000589470135 5.09999740633135 3.0999999999646284
  endloop
endfacet
facet normal -1.9111043063037606e-11 0.9999999987373518 5.025232979205812e-05
  outer loop
    vertex 40.10000099654579 7.600077803331902 1.5001296854500186
    vertex 51.100000589470135 7.599997406331353 3.099999999964628
    vertex 51.10000099654579 7.60007781005902 1.500000002018467
  endloop
endfacet
facet normal -1.9111043063037606e-11 0.9999999987373518 5.025232979205812e-05
  outer loop
    vertex 51.100000589470135 7.599997406331353 3.099999999964628
    vertex 40.10000099654579 7.600077803331902 1.5001296854500186
    vertex 40.100000589470135 7.599997399604238 3.10012968339618
  endloop
endfacet
facet normal 0.999999999999992 -8.857724928215729e-09 1.2628654336657988e-07
  outer loop
    vertex 32.000001655173705 38.19910664170305 1.5030630485033107
    vertex 32.000000000000014 5.099999999999985 3.5000000000000004
    vertex 32.00000099654579 1.000077810059035 1.5000000020184665
  endloop
endfacet
facet normal 0.999999999999992 -8.857724928215729e-09 1.2628654336657988e-07
  outer loop
    vertex 32.000000000000014 5.099999999999985 3.5000000000000004
    vertex 32.000001655173705 38.19910664170305 1.5030630485033107
    vertex 32.000000000000014 7.599999999999992 3.5000000000000004
  endloop
endfacet
facet normal 0.999999999999992 -8.857724928215729e-09 1.2628654336657988e-07
  outer loop
    vertex 32.000000000000014 7.599999999999992 3.5000000000000004
    vertex 32.000001655173705 38.19910664170305 1.5030630485033107
    vertex 32.000000000000014 7.599999999999992 5.500000000000001
  endloop
endfacet
facet normal 0.999999999999992 -8.857724928215729e-09 1.2628654336657988e-07
  outer loop
    vertex 31.999999999999996 0.9999999999999994 11.999999999999995
    vertex 32.000000000000014 5.099999999999985 5.500000000000001
    vertex 31.999999999999996 38.199999999999996 12.0
  endloop
endfacet
facet normal 0.999999999999992 -8.857724928215729e-09 1.2628654336657988e-07
  outer loop
    vertex 32.000000000000014 5.099999999999985 5.500000000000001
    vertex 31.999999999999996 0.9999999999999994 11.999999999999995
    vertex 32.00000099654579 1.000077810059035 1.5000000020184665
  endloop
endfacet
facet normal 0.999999999999992 -8.857724928215729e-09 1.2628654336657988e-07
  outer loop
    vertex 32.000000000000014 5.099999999999985 5.500000000000001
    vertex 32.00000099654579 1.000077810059035 1.5000000020184665
    vertex 32.000000000000014 5.099999999999985 3.5000000000000004
  endloop
endfacet
facet normal 0.999999999999992 -8.857724928215729e-09 1.2628654336657988e-07
  outer loop
    vertex 31.999999999999996 38.199999999999996 12.0
    vertex 32.000000000000014 5.099999999999985 5.500000000000001
    vertex 32.000000000000014 7.599999999999992 5.500000000000001
  endloop
endfacet
facet normal 0.999999999999992 -8.857724928215729e-09 1.2628654336657988e-07
  outer loop
    vertex 31.999999999999996 38.199999999999996 12.0
    vertex 32.000000000000014 7.599999999999992 5.500000000000001
    vertex 32.000001655173705 38.19910664170305 1.5030630485033107
  endloop
endfacet
facet normal -0.999999999999992 8.857725004010243e-09 -1.2628654309793629e-07
  outer loop
    vertex 60.19999999999998 38.199999999999996 12.0
    vertex 60.20000099654577 1.000077810059035 1.5000000020184665
    vertex 60.19999999999998 0.9999999999999962 11.999999999999993
  endloop
endfacet
facet normal -0.999999999999992 8.857725004010243e-09 -1.2628654309793629e-07
  outer loop
    vertex 60.20000099654577 1.000077810059035 1.5000000020184665
    vertex 60.19999999999998 38.199999999999996 12.0
    vertex 60.200001655173686 38.19910664170305 1.5030630485033236
  endloop
endfacet
facet normal -1.967721742885695e-12 -0.9999999990339352 4.395599635749096e-05
  outer loop
    vertex 60.19999999999998 38.199999999999996 12.0
    vertex 50.1 38.19999999999999 1.503063048503328
    vertex 60.200001655173686 38.19910664170305 1.5030630485033236
  endloop
endfacet
facet normal -1.967721742885695e-12 -0.9999999990339352 4.395599635749096e-05
  outer loop
    vertex 50.1 38.19999999999999 1.503063048503328
    vertex 60.19999999999998 38.199999999999996 12.0
    vertex 50.1 38.19999999999999 5.5
  endloop
endfacet
facet normal -1.967721742885695e-12 -0.9999999990339352 4.395599635749096e-05
  outer loop
    vertex 50.1 38.19999999999999 5.5
    vertex 60.19999999999998 38.199999999999996 12.0
    vertex 42.09999999999999 38.19999999999999 5.5
  endloop
endfacet
facet normal -1.967721742885695e-12 -0.9999999990339352 4.395599635749096e-05
  outer loop
    vertex 42.09999999999999 38.19999999999999 1.503063048503328
    vertex 31.999999999999996 38.199999999999996 12.0
    vertex 32.000001655173705 38.19910664170305 1.5030630485033107
  endloop
endfacet
facet normal -1.967721742885695e-12 -0.9999999990339352 4.395599635749096e-05
  outer loop
    vertex 31.999999999999996 38.199999999999996 12.0
    vertex 42.09999999999999 38.19999999999999 1.503063048503328
    vertex 42.09999999999999 38.19999999999999 5.5
  endloop
endfacet
facet normal -1.967721742885695e-12 -0.9999999990339352 4.395599635749096e-05
  outer loop
    vertex 31.999999999999996 38.199999999999996 12.0
    vertex 42.09999999999999 38.19999999999999 5.5
    vertex 60.19999999999998 38.199999999999996 12.0
  endloop
endfacet
facet normal 5.8947014400182e-06 -2.593668630104324e-05 0.9999999996462705
  outer loop
    vertex 51.100000589470135 5.09999740633135 3.0999999999646284
    vertex 40.100000589470135 7.599997399604238 3.10012968339618
    vertex 40.100000589470135 5.09999740633135 3.0999999999646284
  endloop
endfacet
facet normal 5.8947014400182e-06 -2.593668630104324e-05 0.9999999996462705
  outer loop
    vertex 40.100000589470135 7.599997399604238 3.10012968339618
    vertex 51.100000589470135 5.09999740633135 3.0999999999646284
    vertex 51.100000589470135 7.599997406331353 3.099999999964628
  endloop
endfacet
facet normal 0.9999999999999314 -1.6491085668527186e-07 3.315771056174364e-07
  outer loop
    vertex 58.00000099654577 34.00007781005903 1.5000000020184656
    vertex 57.999999999999986 36.00000000000001 5.499999999999993
    vertex 57.999999999999986 34.00000000000001 5.5
  endloop
endfacet
facet normal 0.9999999999999314 -1.6491085668527186e-07 3.315771056174364e-07
  outer loop
    vertex 57.999999999999986 36.00000000000001 5.499999999999993
    vertex 58.00000099654577 34.00007781005903 1.5000000020184656
    vertex 58.00000165517369 35.99910664170305 1.5030630485033172
  endloop
endfacet
facet normal 1.0 -0.0 -0.0
  outer loop
    vertex 61.19999999999998 39.2 3.524958103184872e-16
    vertex 61.19999999999998 5.287437154777308e-15 11.999999999999998
    vertex 61.19999999999998 0.0 3.524958103184872e-16
  endloop
endfacet
facet normal 1.0 -0.0 -0.0
  outer loop
    vertex 61.19999999999998 5.287437154777308e-15 11.999999999999998
    vertex 61.19999999999998 39.2 3.524958103184872e-16
    vertex 61.19999999999998 39.2 11.999999999999998
  endloop
endfacet
facet normal -0.9999999999999982 -5.442320836487138e-23 -5.98970299660135e-08
  outer loop
    vertex 51.099999999999994 7.049916206369744e-16 7.399999999999998
    vertex 51.10000035339224 0.9999961125343452 1.500003889605024
    vertex 51.10000035339224 -3.887465654253685e-06 1.5000038896050254
  endloop
endfacet
facet normal -0.9999999999999982 -5.442320836487138e-23 -5.98970299660135e-08
  outer loop
    vertex 51.10000035339224 0.9999961125343452 1.500003889605024
    vertex 51.099999999999994 7.049916206369744e-16 7.399999999999998
    vertex 51.099999999999994 1.000000000000001 7.399999999999998
  endloop
endfacet
facet normal 0.0 0.0 -1.0
  outer loop
    vertex 50.1 39.2 5.5
    vertex 42.09999999999999 38.19999999999999 5.5
    vertex 42.09999999999999 39.2 5.5
  endloop
endfacet
facet normal 0.0 0.0 -1.0
  outer loop
    vertex 42.09999999999999 38.19999999999999 5.5
    vertex 50.1 39.2 5.5
    vertex 50.1 38.19999999999999 5.5
  endloop
endfacet
facet normal 8.567093797718922e-08 0.9999999749884287 -0.0002236585224245071
  outer loop
    vertex 34.199999999999996 36.00000000000001 5.4999999999999885
    vertex 41.1000016551737 35.99910664170306 1.5083490485033164
    vertex 34.2000016551737 35.99910664170305 1.5030630485033125
  endloop
endfacet
facet normal 8.567093797718922e-08 0.9999999749884287 -0.0002236585224245071
  outer loop
    vertex 41.1000016551737 35.99910664170306 1.5083490485033164
    vertex 34.199999999999996 36.00000000000001 5.4999999999999885
    vertex 41.099999999999994 36.00000000000001 5.499999999999991
  endloop
endfacet
facet normal -4.086907945721591e-16 1.4099832412739473e-15 1.0
  outer loop
    vertex 41.099999999999994 34.00000000000001 5.499999999999994
    vertex 34.199999999999996 36.00000000000001 5.4999999999999885
    vertex 34.199999999999996 34.00000000000001 5.499999999999991
  endloop
endfacet
facet normal -4.086907945721591e-16 1.4099832412739473e-15 1.0
  outer loop
    vertex 34.199999999999996 36.00000000000001 5.4999999999999885
    vertex 41.099999999999994 34.00000000000001 5.499999999999994
    vertex 41.099999999999994 36.00000000000001 5.499999999999991
  endloop
endfacet
facet normal -0.9999999999999314 1.6491085527582965e-07 -3.315771063228245e-07
  outer loop
    vertex 34.199999999999996 36.00000000000001 5.4999999999999885
    vertex 34.20000099654579 34.00007781005903 1.5000000020184576
    vertex 34.199999999999996 34.00000000000001 5.499999999999991
  endloop
endfacet
facet normal -0.9999999999999314 1.6491085527582965e-07 -3.315771063228245e-07
  outer loop
    vertex 34.20000099654579 34.00007781005903 1.5000000020184576
    vertex 34.199999999999996 36.00000000000001 5.4999999999999885
    vertex 34.2000016551737 35.99910664170305 1.5030630485033125
  endloop
endfacet
facet normal 0.9999999999999314 -1.6491119134023e-07 3.3201599163843366e-07
  outer loop
    vertex 41.10000099654579 34.00007781005904 1.5052860020184609
    vertex 41.099999999999994 36.00000000000001 5.499999999999991
    vertex 41.099999999999994 34.00000000000001 5.499999999999994
  endloop
endfacet
facet normal 0.9999999999999314 -1.6491119134023e-07 3.3201599163843366e-07
  outer loop
    vertex 41.099999999999994 36.00000000000001 5.499999999999991
    vertex 41.10000099654579 34.00007781005904 1.5052860020184609
    vertex 41.1000016551737 35.99910664170306 1.5083490485033164
  endloop
endfacet
facet normal 1.0600935176978788e-16 2.4674706722294082e-15 1.0
  outer loop
    vertex 57.999999999999986 34.00000000000001 5.5
    vertex 51.34972237007966 36.00000000000001 5.499999999999996
    vertex 51.34972237007966 34.00000000000001 5.499999999999998
  endloop
endfacet
facet normal 1.0600935176978788e-16 2.4674706722294082e-15 1.0
  outer loop
    vertex 51.34972237007966 36.00000000000001 5.499999999999996
    vertex 57.999999999999986 34.00000000000001 5.5
    vertex 57.999999999999986 36.00000000000001 5.499999999999993
  endloop
endfacet
facet normal -0.9999999999999314 1.6491119274967204e-07 -3.3201599093211136e-07
  outer loop
    vertex 51.34972237007966 36.00000000000001 5.499999999999996
    vertex 51.349723366625454 34.00007781005904 1.5052860020184644
    vertex 51.34972237007966 34.00000000000001 5.499999999999998
  endloop
endfacet
facet normal -0.9999999999999314 1.6491119274967204e-07 -3.3201599093211136e-07
  outer loop
    vertex 51.349723366625454 34.00007781005904 1.5052860020184644
    vertex 51.34972237007966 36.00000000000001 5.499999999999996
    vertex 51.34972402525337 35.99910664170306 1.50834904850332
  endloop
endfacet
facet normal 5.874930171974786e-17 4.699944137579828e-16 1.0
  outer loop
    vertex 20.0 2.349972068789914e-16 4.499999999999996
    vertex 8.999999999999998 1.0000000000000002 4.499999999999996
    vertex 8.999999999999998 2.349972068789914e-16 4.499999999999996
  endloop
endfacet
facet normal 5.874930171974786e-17 4.699944137579828e-16 1.0
  outer loop
    vertex 8.999999999999998 1.0000000000000002 4.499999999999996
    vertex 20.0 2.349972068789914e-16 4.499999999999996
    vertex 20.0 1.0000000000000002 4.499999999999995
  endloop
endfacet
facet normal -1.0 5.52236872409275e-32 5.874930171974786e-17
  outer loop
    vertex 20.0 6.099490023003541e-15 10.499999999999998
    vertex 20.0 1.0000000000000002 4.499999999999995
    vertex 20.0 2.349972068789914e-16 4.499999999999996
  endloop
endfacet
facet normal -1.0 5.52236872409275e-32 5.874930171974786e-17
  outer loop
    vertex 20.0 1.0000000000000002 4.499999999999995
    vertex 20.0 6.099490023003541e-15 10.499999999999998
    vertex 20.0 1.0000000000000056 10.499999999999996
  endloop
endfacet
facet normal -1.0 0.0 0.0
  outer loop
    vertex 24.0 35.99999999999999 4.999999999999999
    vertex 24.0 32.99999999999999 1.5
    vertex 24.0 32.99999999999999 4.999999999999999
  endloop
endfacet
facet normal -1.0 0.0 0.0
  outer loop
    vertex 24.0 32.99999999999999 1.5
    vertex 24.0 35.99999999999999 4.999999999999999
    vertex 24.0 35.99999999999999 1.5
  endloop
endfacet
facet normal 0.0 0.0 -1.0
  outer loop
    vertex 0.0 37.0 0.0
    vertex 5.749999999999998 30.8 -1.0927370119873103e-14
    vertex 0.0 5.287437154777307e-16 0.0
  endloop
endfacet
facet normal 0.0 0.0 -1.0
  outer loop
    vertex 5.749999999999998 30.8 -1.0927370119873103e-14
    vertex 0.0 37.0 0.0
    vertex 28.0 37.0 0.0
  endloop
endfacet
facet normal 0.0 0.0 -1.0
  outer loop
    vertex 5.749999999999998 30.8 -1.0927370119873103e-14
    vertex 28.0 37.0 0.0
    vertex 8.749999999999998 30.8 -1.2337353361147052e-14
  endloop
endfacet
facet normal 0.0 0.0 -1.0
  outer loop
    vertex 8.749999999999998 30.8 -1.2337353361147052e-14
    vertex 28.0 37.0 0.0
    vertex 8.749999999999998 28.799999999999997 -1.2337353361147052e-14
  endloop
endfacet
facet normal 0.0 0.0 -1.0
  outer loop
    vertex 0.0 5.287437154777307e-16 0.0
    vertex 5.749999999999998 28.799999999999997 -1.2337353361147052e-14
    vertex 28.0 5.287437154777307e-16 0.0
  endloop
endfacet
facet normal 0.0 0.0 -1.0
  outer loop
    vertex 5.749999999999998 28.799999999999997 -1.2337353361147052e-14
    vertex 0.0 5.287437154777307e-16 0.0
    vertex 5.749999999999998 30.8 -1.0927370119873103e-14
  endloop
endfacet
facet normal 0.0 0.0 -1.0
  outer loop
    vertex 28.0 5.287437154777307e-16 0.0
    vertex 5.749999999999998 28.799999999999997 -1.2337353361147052e-14
    vertex 8.749999999999998 28.799999999999997 -1.2337353361147052e-14
  endloop
endfacet
facet normal 0.0 0.0 -1.0
  outer loop
    vertex 28.0 5.287437154777307e-16 0.0
    vertex 8.749999999999998 28.799999999999997 -1.2337353361147052e-14
    vertex 28.0 37.0 0.0
  endloop
endfacet
facet normal -2.3499720687899093e-16 -1.762479051592431e-16 1.0
  outer loop
    vertex 28.0 4.000000000000001 6.499999999999998
    vertex 26.999999999999996 6.500000000000008 6.499999999999998
    vertex 26.999999999999996 4.0 6.4999999999999964
  endloop
endfacet
facet normal -2.3499720687899093e-16 -1.762479051592431e-16 1.0
  outer loop
    vertex 26.999999999999996 6.500000000000008 6.499999999999998
    vertex 28.0 4.000000000000001 6.499999999999998
    vertex 28.0 6.500000000000008 6.499999999999998
  endloop
endfacet
facet normal 0.0 -1.0 0.0
  outer loop
    vertex 4.0 32.99999999999999 4.999999999999999
    vertex 1.0000000000000002 32.99999999999999 1.5
    vertex 4.0 32.99999999999999 1.5
  endloop
endfacet
facet normal 0.0 -1.0 0.0
  outer loop
    vertex 1.0000000000000002 32.99999999999999 1.5
    vertex 4.0 32.99999999999999 4.999999999999999
    vertex 1.0000000000000002 32.99999999999999 4.999999999999999
  endloop
endfacet
facet normal -1.0 0.0 0.0
  outer loop
    vertex 26.999999999999996 0.9999999999999973 10.499999999999993
    vertex 26.999999999999996 3.9999999999999996 8.499999999999995
    vertex 26.999999999999996 1.0000000000000007 1.5
  endloop
endfacet
facet normal -1.0 0.0 0.0
  outer loop
    vertex 26.999999999999996 3.9999999999999996 8.499999999999995
    vertex 26.999999999999996 0.9999999999999973 10.499999999999993
    vertex 26.999999999999996 35.99999999999999 10.5
  endloop
endfacet
facet normal -1.0 0.0 0.0
  outer loop
    vertex 26.999999999999996 3.9999999999999996 8.499999999999995
    vertex 26.999999999999996 35.99999999999999 10.5
    vertex 26.999999999999996 6.500000000000008 8.499999999999996
  endloop
endfacet
facet normal -1.0 0.0 0.0
  outer loop
    vertex 26.999999999999996 6.500000000000008 8.499999999999996
    vertex 26.999999999999996 35.99999999999999 10.5
    vertex 26.999999999999996 6.500000000000008 6.499999999999998
  endloop
endfacet
facet normal -1.0 0.0 0.0
  outer loop
    vertex 26.999999999999996 6.500000000000008 6.499999999999998
    vertex 26.999999999999996 35.99999999999999 10.5
    vertex 26.999999999999996 32.99999999999999 4.999999999999999
  endloop
endfacet
facet normal -1.0 0.0 0.0
  outer loop
    vertex 26.999999999999996 32.99999999999999 4.999999999999999
    vertex 26.999999999999996 35.99999999999999 10.5
    vertex 26.999999999999996 35.99999999999999 4.999999999999999
  endloop
endfacet
facet normal -1.0 0.0 0.0
  outer loop
    vertex 26.999999999999996 1.0000000000000007 1.5
    vertex 26.999999999999996 4.0 6.4999999999999964
    vertex 26.999999999999996 32.99999999999999 1.5
  endloop
endfacet
facet normal -1.0 0.0 0.0
  outer loop
    vertex 26.999999999999996 4.0 6.4999999999999964
    vertex 26.999999999999996 1.0000000000000007 1.5
    vertex 26.999999999999996 3.9999999999999996 8.499999999999995
  endloop
endfacet
facet normal -1.0 0.0 0.0
  outer loop
    vertex 26.999999999999996 32.99999999999999 1.5
    vertex 26.999999999999996 4.0 6.4999999999999964
    vertex 26.999999999999996 6.500000000000008 6.499999999999998
  endloop
endfacet
facet normal -1.0 0.0 0.0
  outer loop
    vertex 26.999999999999996 32.99999999999999 1.5
    vertex 26.999999999999996 6.500000000000008 6.499999999999998
    vertex 26.999999999999996 32.99999999999999 4.999999999999999
  endloop
endfacet
facet normal 1.0 -3.8734030375372457e-19 9.34046857114731e-18
  outer loop
    vertex 1.0000000000000002 1.0000000000000007 1.5
    vertex 1.0000000000000004 35.99999999999999 10.500000000000005
    vertex 1.0000000000000004 1.0000000000000002 10.5
  endloop
endfacet
facet normal 1.0 -3.8734030375372457e-19 9.34046857114731e-18
  outer loop
    vertex 1.0000000000000004 35.99999999999999 10.500000000000005
    vertex 1.0000000000000002 1.0000000000000007 1.5
    vertex 1.0000000000000002 32.99999999999999 4.999999999999999
  endloop
endfacet
facet normal 1.0 -3.8734030375372457e-19 9.34046857114731e-18
  outer loop
    vertex 1.0000000000000002 32.99999999999999 4.999999999999999
    vertex 1.0000000000000002 1.0000000000000007 1.5
    vertex 1.0000000000000002 32.99999999999999 1.5
  endloop
endfacet
facet normal 1.0 -3.8734030375372457e-19 9.34046857114731e-18
  outer loop
    vertex 1.0000000000000004 35.99999999999999 10.500000000000005
    vertex 1.0000000000000002 32.99999999999999 4.999999999999999
    vertex 1.0000000000000002 35.99999999999999 4.999999999999999
  endloop
endfacet
facet normal 1.0 0.0 -5.874930171974786e-17
  outer loop
    vertex 8.999999999999998 1.0000000000000002 4.499999999999996
    vertex 8.999999999999998 2.8008560477545467e-16 10.500000000000004
    vertex 8.999999999999998 2.349972068789914e-16 4.499999999999996
  endloop
endfacet
facet normal 1.0 0.0 -5.874930171974786e-17
  outer loop
    vertex 8.999999999999998 2.8008560477545467e-16 10.500000000000004
    vertex 8.999999999999998 1.0000000000000002 4.499999999999996
    vertex 8.999999999999998 1.0000000000000002 10.500000000000004
  endloop
endfacet
facet normal 0.0 -1.0 0.0
  outer loop
    vertex 24.0 35.99999999999999 4.999999999999999
    vertex 4.0 35.99999999999999 1.5
    vertex 24.0 35.99999999999999 1.5
  endloop
endfacet
facet normal 0.0 -1.0 0.0
  outer loop
    vertex 4.0 35.99999999999999 1.5
    vertex 24.0 35.99999999999999 4.999999999999999
    vertex 4.0 35.99999999999999 4.999999999999999
  endloop
endfacet
facet normal 0.0 -1.0 0.0
  outer loop
    vertex 26.999999999999996 35.99999999999999 10.5
    vertex 24.0 35.99999999999999 4.999999999999999
    vertex 26.999999999999996 35.99999999999999 4.999999999999999
  endloop
endfacet
facet normal 0.0 -1.0 0.0
  outer loop
    vertex 24.0 35.99999999999999 4.999999999999999
    vertex 26.999999999999996 35.99999999999999 10.5
    vertex 17.999999999999996 35.99999999999999 6.499999999999998
  endloop
endfacet
facet normal 0.0 -1.0 0.0
  outer loop
    vertex 24.0 35.99999999999999 4.999999999999999
    vertex 17.999999999999996 35.99999999999999 6.499999999999998
    vertex 4.0 35.99999999999999 4.999999999999999
  endloop
endfacet
facet normal 0.0 -1.0 0.0
  outer loop
    vertex 4.0 35.99999999999999 4.999999999999999
    vertex 17.999999999999996 35.99999999999999 6.499999999999998
    vertex 1.0000000000000002 35.99999999999999 4.999999999999999
  endloop
endfacet
facet normal 0.0 -1.0 0.0
  outer loop
    vertex 1.0000000000000002 35.99999999999999 4.999999999999999
    vertex 17.999999999999996 35.99999999999999 6.499999999999998
    vertex 10.0 35.99999999999999 6.4999999999999964
  endloop
endfacet
facet normal 0.0 -1.0 0.0
  outer loop
    vertex 17.999999999999996 35.99999999999999 6.499999999999998
    vertex 26.999999999999996 35.99999999999999 10.5
    vertex 17.999999999999996 35.99999999999999 10.499999999999998
  endloop
endfacet
facet normal 0.0 -1.0 0.0
  outer loop
    vertex 10.0 35.99999999999999 6.4999999999999964
    vertex 1.0000000000000004 35.99999999999999 10.500000000000005
    vertex 1.0000000000000002 35.99999999999999 4.999999999999999
  endloop
endfacet
facet normal 0.0 -1.0 0.0
  outer loop
    vertex 1.0000000000000004 35.99999999999999 10.500000000000005
    vertex 10.0 35.99999999999999 6.4999999999999964
    vertex 10.0 35.99999999999999 10.500000000000004
  endloop
endfacet
facet normal 2.087323892737192e-33 -1.0 -2.014261773248497e-16
  outer loop
    vertex 28.0 6.500000000000008 8.499999999999996
    vertex 26.999999999999996 6.500000000000008 6.499999999999998
    vertex 28.0 6.500000000000008 6.499999999999998
  endloop
endfacet
facet normal 2.087323892737192e-33 -1.0 -2.014261773248497e-16
  outer loop
    vertex 26.999999999999996 6.500000000000008 6.499999999999998
    vertex 28.0 6.500000000000008 8.499999999999996
    vertex 26.999999999999996 6.500000000000008 8.499999999999996
  endloop
endfacet
facet normal -7.049916206369745e-17 7.049916206369717e-16 1.0
  outer loop
    vertex 17.999999999999996 35.99999999999999 6.499999999999998
    vertex 10.0 37.0 6.4999999999999964
    vertex 10.0 35.99999999999999 6.4999999999999964
  endloop
endfacet
facet normal -7.049916206369745e-17 7.049916206369717e-16 1.0
  outer loop
    vertex 10.0 37.0 6.4999999999999964
    vertex 17.999999999999996 35.99999999999999 6.499999999999998
    vertex 17.999999999999996 37.0 6.4999999999999964
  endloop
endfacet
facet normal 1.0 9.318997221906508e-32 -1.7624790515924362e-16
  outer loop
    vertex 5.749999999999998 30.8 -1.0927370119873103e-14
    vertex 5.749999999999998 28.799999999999997 1.4999999999999987
    vertex 5.749999999999998 28.799999999999997 -1.2337353361147052e-14
  endloop
endfacet
facet normal 1.0 9.318997221906508e-32 -1.7624790515924362e-16
  outer loop
    vertex 5.749999999999998 28.799999999999997 1.4999999999999987
    vertex 5.749999999999998 30.8 -1.0927370119873103e-14
    vertex 5.749999999999998 30.8 1.4999999999999998
  endloop
endfacet
facet normal 0.0 0.0 1.0
  outer loop
    vertex 24.0 4.000000000000001 4.999999999999999
    vertex 4.0 7.000000000000001 4.999999999999999
    vertex 4.0 4.000000000000001 4.999999999999999
  endloop
endfacet
facet normal 0.0 0.0 1.0
  outer loop
    vertex 4.0 7.000000000000001 4.999999999999999
    vertex 24.0 4.000000000000001 4.999999999999999
    vertex 24.0 7.000000000000001 4.999999999999999
  endloop
endfacet
facet normal 0.0 0.0 1.0
  outer loop
    vertex 4.0 32.99999999999999 4.999999999999999
    vertex 1.0000000000000002 35.99999999999999 4.999999999999999
    vertex 1.0000000000000002 32.99999999999999 4.999999999999999
  endloop
endfacet
facet normal 0.0 0.0 1.0
  outer loop
    vertex 1.0000000000000002 35.99999999999999 4.999999999999999
    vertex 4.0 32.99999999999999 4.999999999999999
    vertex 4.0 35.99999999999999 4.999999999999999
  endloop
endfacet
facet normal 1.0812843014566464e-17 1.0 -6.486908916547977e-17
  outer loop
    vertex 1.0000000000000002 1.0000000000000007 1.5
    vertex 8.999999999999998 1.0000000000000002 4.499999999999996
    vertex 26.999999999999996 1.0000000000000007 1.5
  endloop
endfacet
facet normal 1.0812843014566464e-17 1.0 -6.486908916547977e-17
  outer loop
    vertex 8.999999999999998 1.0000000000000002 4.499999999999996
    vertex 1.0000000000000002 1.0000000000000007 1.5
    vertex 1.0000000000000004 1.0000000000000002 10.5
  endloop
endfacet
facet normal 1.0812843014566464e-17 1.0 -6.486908916547977e-17
  outer loop
    vertex 26.999999999999996 1.0000000000000007 1.5
    vertex 8.999999999999998 1.0000000000000002 4.499999999999996
    vertex 20.0 1.0000000000000002 4.499999999999995
  endloop
endfacet
facet normal 1.0812843014566464e-17 1.0 -6.486908916547977e-17
  outer loop
    vertex 8.999999999999998 1.0000000000000002 4.499999999999996
    vertex 1.0000000000000004 1.0000000000000002 10.5
    vertex 8.999999999999998 1.0000000000000002 10.500000000000004
  endloop
endfacet
facet normal 1.0812843014566464e-17 1.0 -6.486908916547977e-17
  outer loop
    vertex 20.0 1.0000000000000002 4.499999999999995
    vertex 26.999999999999996 0.9999999999999973 10.499999999999993
    vertex 26.999999999999996 1.0000000000000007 1.5
  endloop
endfacet
facet normal 1.0812843014566464e-17 1.0 -6.486908916547977e-17
  outer loop
    vertex 26.999999999999996 0.9999999999999973 10.499999999999993
    vertex 20.0 1.0000000000000002 4.499999999999995
    vertex 20.0 1.0000000000000056 10.499999999999996
  endloop
endfacet
facet normal 0.0 1.0 2.643718577388652e-16
  outer loop
    vertex 5.749999999999998 28.799999999999997 1.4999999999999987
    vertex 8.749999999999998 28.799999999999997 -1.2337353361147052e-14
    vertex 5.749999999999998 28.799999999999997 -1.2337353361147052e-14
  endloop
endfacet
facet normal 0.0 1.0 2.643718577388652e-16
  outer loop
    vertex 8.749999999999998 28.799999999999997 -1.2337353361147052e-14
    vertex 5.749999999999998 28.799999999999997 1.4999999999999987
    vertex 8.749999999999998 28.799999999999997 1.4999999999999987
  endloop
endfacet
facet normal 1.0 0.0 7.049916206369745e-17
  outer loop
    vertex 10.0 37.0 6.4999999999999964
    vertex 10.0 35.99999999999999 10.500000000000004
    vertex 10.0 35.99999999999999 6.4999999999999964
  endloop
endfacet
facet normal 1.0 0.0 7.049916206369745e-17
  outer loop
    vertex 10.0 35.99999999999999 10.500000000000004
    vertex 10.0 37.0 6.4999999999999964
    vertex 10.0 37.0 10.500000000000004
  endloop
endfacet
facet normal 0.0 1.0 0.0
  outer loop
    vertex 0.0 37.0 0.0
    vertex 10.0 37.0 6.4999999999999964
    vertex 28.0 37.0 0.0
  endloop
endfacet
facet normal 0.0 1.0 0.0
  outer loop
    vertex 10.0 37.0 6.4999999999999964
    vertex 0.0 37.0 0.0
    vertex 7.699368781721107e-17 37.0 10.500000000000004
  endloop
endfacet
facet normal 0.0 1.0 0.0
  outer loop
    vertex 10.0 37.0 6.4999999999999964
    vertex 7.699368781721107e-17 37.0 10.500000000000004
    vertex 10.0 37.0 10.500000000000004
  endloop
endfacet
facet normal 0.0 1.0 0.0
  outer loop
    vertex 28.0 37.0 0.0
    vertex 17.999999999999996 37.0 6.4999999999999964
    vertex 28.0 37.0 10.499999999999996
  endloop
endfacet
facet normal 0.0 1.0 0.0
  outer loop
    vertex 17.999999999999996 37.0 6.4999999999999964
    vertex 28.0 37.0 0.0
    vertex 10.0 37.0 6.4999999999999964
  endloop
endfacet
facet normal 0.0 1.0 0.0
  outer loop
    vertex 28.0 37.0 10.499999999999996
    vertex 17.999999999999996 37.0 6.4999999999999964
    vertex 17.999999999999996 37.0 10.499999999999996
  endloop
endfacet
facet normal -7.049916206369732e-16 1.0 5.0356544331212525e-16
  outer loop
    vertex 26.999999999999996 3.9999999999999996 8.499999999999995
    vertex 28.0 4.000000000000001 6.499999999999998
    vertex 26.999999999999996 4.0 6.4999999999999964
  endloop
endfacet
facet normal -7.049916206369732e-16 1.0 5.0356544331212525e-16
  outer loop
    vertex 28.0 4.000000000000001 6.499999999999998
    vertex 26.999999999999996 3.9999999999999996 8.499999999999995
    vertex 28.0 4.000000000000001 8.499999999999995
  endloop
endfacet
facet normal -5.2600562096983365e-31 1.4099832412739438e-15 -1.0
  outer loop
    vertex 28.0 6.500000000000008 8.499999999999996
    vertex 26.999999999999996 3.9999999999999996 8.499999999999995
    vertex 26.999999999999996 6.500000000000008 8.499999999999996
  endloop
endfacet
facet normal -5.2600562096983365e-31 1.4099832412739438e-15 -1.0
  outer loop
    vertex 26.999999999999996 3.9999999999999996 8.499999999999995
    vertex 28.0 6.500000000000008 8.499999999999996
    vertex 28.0 4.000000000000001 8.499999999999995
  endloop
endfacet
facet normal -1.0 1.976102551563141e-18 1.363547833109322e-33
  outer loop
    vertex 7.699368781721107e-17 37.0 10.500000000000004
    vertex 0.0 5.287437154777307e-16 0.0
    vertex 7.699368781721107e-17 2.8008560477545467e-16 10.500000000000004
  endloop
endfacet
facet normal -1.0 1.976102551563141e-18 1.363547833109322e-33
  outer loop
    vertex 0.0 5.287437154777307e-16 0.0
    vertex 7.699368781721107e-17 37.0 10.500000000000004
    vertex 0.0 37.0 0.0
  endloop
endfacet
facet normal -9.31899722190651e-32 -1.0 -2.643718577388652e-16
  outer loop
    vertex 8.749999999999998 30.8 1.4999999999999987
    vertex 5.749999999999998 30.8 -1.0927370119873103e-14
    vertex 8.749999999999998 30.8 -1.2337353361147052e-14
  endloop
endfacet
facet normal -9.31899722190651e-32 -1.0 -2.643718577388652e-16
  outer loop
    vertex 5.749999999999998 30.8 -1.0927370119873103e-14
    vertex 8.749999999999998 30.8 1.4999999999999987
    vertex 5.749999999999998 30.8 1.4999999999999998
  endloop
endfacet
facet normal -1.0 -9.940263703366916e-32 -7.049916206369745e-17
  outer loop
    vertex 17.999999999999996 37.0 10.499999999999996
    vertex 17.999999999999996 35.99999999999999 6.499999999999998
    vertex 17.999999999999996 35.99999999999999 10.499999999999998
  endloop
endfacet
facet normal -1.0 -9.940263703366916e-32 -7.049916206369745e-17
  outer loop
    vertex 17.999999999999996 35.99999999999999 6.499999999999998
    vertex 17.999999999999996 37.0 10.499999999999996
    vertex 17.999999999999996 37.0 6.4999999999999964
  endloop
endfacet
facet normal 2.5188165867532398e-17 -4.612443837998901e-17 1.0
  outer loop
    vertex 28.0 6.099490023003541e-15 10.499999999999998
    vertex 20.0 1.0000000000000056 10.499999999999996
    vertex 20.0 6.099490023003541e-15 10.499999999999998
  endloop
endfacet
facet normal 2.5188165867532398e-17 -4.612443837998901e-17 1.0
  outer loop
    vertex 20.0 1.0000000000000056 10.499999999999996
    vertex 28.0 6.099490023003541e-15 10.499999999999998
    vertex 26.999999999999996 0.9999999999999973 10.499999999999993
  endloop
endfacet
facet normal 2.5188165867532398e-17 -4.612443837998901e-17 1.0
  outer loop
    vertex 26.999999999999996 0.9999999999999973 10.499999999999993
    vertex 28.0 6.099490023003541e-15 10.499999999999998
    vertex 26.999999999999996 35.99999999999999 10.5
  endloop
endfacet
facet normal 2.5188165867532398e-17 -4.612443837998901e-17 1.0
  outer loop
    vertex 26.999999999999996 35.99999999999999 10.5
    vertex 17.999999999999996 37.0 10.499999999999996
    vertex 17.999999999999996 35.99999999999999 10.499999999999998
  endloop
endfacet
facet normal 2.5188165867532398e-17 -4.612443837998901e-17 1.0
  outer loop
    vertex 17.999999999999996 37.0 10.499999999999996
    vertex 26.999999999999996 35.99999999999999 10.5
    vertex 28.0 37.0 10.499999999999996
  endloop
endfacet
facet normal 2.5188165867532398e-17 -4.612443837998901e-17 1.0
  outer loop
    vertex 28.0 37.0 10.499999999999996
    vertex 26.999999999999996 35.99999999999999 10.5
    vertex 28.0 6.099490023003541e-15 10.499999999999998
  endloop
endfacet
facet normal 0.0 -1.0 0.0
  outer loop
    vertex 28.0 5.287437154777307e-16 0.0
    vertex 20.0 2.349972068789914e-16 4.499999999999996
    vertex 0.0 5.287437154777307e-16 0.0
  endloop
endfacet
facet normal 0.0 -1.0 0.0
  outer loop
    vertex 20.0 2.349972068789914e-16 4.499999999999996
    vertex 28.0 5.287437154777307e-16 0.0
    vertex 28.0 6.099490023003541e-15 10.499999999999998
  endloop
endfacet
facet normal 0.0 -1.0 0.0
  outer loop
    vertex 20.0 2.349972068789914e-16 4.499999999999996
    vertex 28.0 6.099490023003541e-15 10.499999999999998
    vertex 20.0 6.099490023003541e-15 10.499999999999998
  endloop
endfacet
facet normal 0.0 -1.0 0.0
  outer loop
    vertex 0.0 5.287437154777307e-16 0.0
    vertex 8.999999999999998 2.349972068789914e-16 4.499999999999996
    vertex 7.699368781721107e-17 2.8008560477545467e-16 10.500000000000004
  endloop
endfacet
facet normal 0.0 -1.0 0.0
  outer loop
    vertex 8.999999999999998 2.349972068789914e-16 4.499999999999996
    vertex 0.0 5.287437154777307e-16 0.0
    vertex 20.0 2.349972068789914e-16 4.499999999999996
  endloop
endfacet
facet normal 0.0 -1.0 0.0
  outer loop
    vertex 7.699368781721107e-17 2.8008560477545467e-16 10.500000000000004
    vertex 8.999999999999998 2.349972068789914e-16 4.499999999999996
    vertex 8.999999999999998 2.8008560477545467e-16 10.500000000000004
  endloop
endfacet
facet normal 0.0 0.0 1.0
  outer loop
    vertex 26.999999999999996 32.99999999999999 4.999999999999999
    vertex 24.0 35.99999999999999 4.999999999999999
    vertex 24.0 32.99999999999999 4.999999999999999
  endloop
endfacet
facet normal 0.0 0.0 1.0
  outer loop
    vertex 24.0 35.99999999999999 4.999999999999999
    vertex 26.999999999999996 32.99999999999999 4.999999999999999
    vertex 26.999999999999996 35.99999999999999 4.999999999999999
  endloop
endfacet
facet normal 0.0 0.0 1.0
  outer loop
    vertex 4.0 4.000000000000001 1.5
    vertex 4.0 32.99999999999999 1.5
    vertex 1.0000000000000002 32.99999999999999 1.5
  endloop
endfacet
facet normal 0.0 0.0 1.0
  outer loop
    vertex 4.0 32.99999999999999 1.5
    vertex 4.0 4.000000000000001 1.5
    vertex 4.0 7.000000000000001 1.5
  endloop
endfacet
facet normal 0.0 0.0 1.0
  outer loop
    vertex 4.0 32.99999999999999 1.5
    vertex 4.0 7.000000000000001 1.5
    vertex 5.749999999999998 28.799999999999997 1.4999999999999987
  endloop
endfacet
facet normal 0.0 0.0 1.0
  outer loop
    vertex 5.749999999999998 28.799999999999997 1.4999999999999987
    vertex 4.0 7.000000000000001 1.5
    vertex 24.0 7.000000000000001 1.5
  endloop
endfacet
facet normal 0.0 0.0 1.0
  outer loop
    vertex 4.0 32.99999999999999 1.5
    vertex 5.749999999999998 28.799999999999997 1.4999999999999987
    vertex 4.0 35.99999999999999 1.5
  endloop
endfacet
facet normal 0.0 0.0 1.0
  outer loop
    vertex 5.749999999999998 28.799999999999997 1.4999999999999987
    vertex 24.0 7.000000000000001 1.5
    vertex 8.749999999999998 28.799999999999997 1.4999999999999987
  endloop
endfacet
facet normal 0.0 0.0 1.0
  outer loop
    vertex 8.749999999999998 28.799999999999997 1.4999999999999987
    vertex 24.0 7.000000000000001 1.5
    vertex 8.749999999999998 30.8 1.4999999999999987
  endloop
endfacet
facet normal 0.0 0.0 1.0
  outer loop
    vertex 4.0 35.99999999999999 1.5
    vertex 5.749999999999998 30.8 1.4999999999999998
    vertex 24.0 35.99999999999999 1.5
  endloop
endfacet
facet normal 0.0 0.0 1.0
  outer loop
    vertex 5.749999999999998 30.8 1.4999999999999998
    vertex 4.0 35.99999999999999 1.5
    vertex 5.749999999999998 28.799999999999997 1.4999999999999987
  endloop
endfacet
facet normal 0.0 0.0 1.0
  outer loop
    vertex 24.0 35.99999999999999 1.5
    vertex 5.749999999999998 30.8 1.4999999999999998
    vertex 8.749999999999998 30.8 1.4999999999999987
  endloop
endfacet
facet normal 0.0 0.0 1.0
  outer loop
    vertex 24.0 35.99999999999999 1.5
    vertex 8.749999999999998 30.8 1.4999999999999987
    vertex 24.0 7.000000000000001 1.5
  endloop
endfacet
facet normal 0.0 0.0 1.0
  outer loop
    vertex 24.0 35.99999999999999 1.5
    vertex 24.0 7.000000000000001 1.5
    vertex 24.0 32.99999999999999 1.5
  endloop
endfacet
facet normal 0.0 0.0 1.0
  outer loop
    vertex 1.0000000000000002 1.0000000000000007 1.5
    vertex 4.0 4.000000000000001 1.5
    vertex 1.0000000000000002 32.99999999999999 1.5
  endloop
endfacet
facet normal 0.0 0.0 1.0
  outer loop
    vertex 4.0 4.000000000000001 1.5
    vertex 1.0000000000000002 1.0000000000000007 1.5
    vertex 26.999999999999996 1.0000000000000007 1.5
  endloop
endfacet
facet normal 0.0 0.0 1.0
  outer loop
    vertex 4.0 4.000000000000001 1.5
    vertex 26.999999999999996 1.0000000000000007 1.5
    vertex 24.0 4.000000000000001 1.5
  endloop
endfacet
facet normal 0.0 0.0 1.0
  outer loop
    vertex 24.0 4.000000000000001 1.5
    vertex 26.999999999999996 1.0000000000000007 1.5
    vertex 24.0 7.000000000000001 1.5
  endloop
endfacet
facet normal 0.0 0.0 1.0
  outer loop
    vertex 24.0 7.000000000000001 1.5
    vertex 26.999999999999996 1.0000000000000007 1.5
    vertex 24.0 32.99999999999999 1.5
  endloop
endfacet
facet normal 0.0 0.0 1.0
  outer loop
    vertex 24.0 32.99999999999999 1.5
    vertex 26.999999999999996 1.0000000000000007 1.5
    vertex 26.999999999999996 32.99999999999999 1.5
  endloop
endfacet
facet normal -1.0 0.0 1.7624790515924362e-16
  outer loop
    vertex 8.749999999999998 30.8 1.4999999999999987
    vertex 8.749999999999998 28.799999999999997 -1.2337353361147052e-14
    vertex 8.749999999999998 28.799999999999997 1.4999999999999987
  endloop
endfacet
facet normal -1.0 0.0 1.7624790515924362e-16
  outer loop
    vertex 8.749999999999998 28.799999999999997 -1.2337353361147052e-14
    vertex 8.749999999999998 30.8 1.4999999999999987
    vertex 8.749999999999998 30.8 -1.2337353361147052e-14
  endloop
endfacet
facet normal 5.13291252114738e-17 -4.827347036202141e-17 1.0
  outer loop
    vertex 7.699368781721107e-17 2.8008560477545467e-16 10.500000000000004
    vertex 1.0000000000000004 1.0000000000000002 10.5
    vertex 7.699368781721107e-17 37.0 10.500000000000004
  endloop
endfacet
facet normal 5.13291252114738e-17 -4.827347036202141e-17 1.0
  outer loop
    vertex 1.0000000000000004 1.0000000000000002 10.5
    vertex 7.699368781721107e-17 2.8008560477545467e-16 10.500000000000004
    vertex 8.999999999999998 2.8008560477545467e-16 10.500000000000004
  endloop
endfacet
facet normal 5.13291252114738e-17 -4.827347036202141e-17 1.0
  outer loop
    vertex 1.0000000000000004 1.0000000000000002 10.5
    vertex 8.999999999999998 2.8008560477545467e-16 10.500000000000004
    vertex 8.999999999999998 1.0000000000000002 10.500000000000004
  endloop
endfacet
facet normal 5.13291252114738e-17 -4.827347036202141e-17 1.0
  outer loop
    vertex 7.699368781721107e-17 37.0 10.500000000000004
    vertex 1.0000000000000004 35.99999999999999 10.500000000000005
    vertex 10.0 37.0 10.500000000000004
  endloop
endfacet
facet normal 5.13291252114738e-17 -4.827347036202141e-17 1.0
  outer loop
    vertex 1.0000000000000004 35.99999999999999 10.500000000000005
    vertex 7.699368781721107e-17 37.0 10.500000000000004
    vertex 1.0000000000000004 1.0000000000000002 10.5
  endloop
endfacet
facet normal 5.13291252114738e-17 -4.827347036202141e-17 1.0
  outer loop
    vertex 10.0 37.0 10.500000000000004
    vertex 1.0000000000000004 35.99999999999999 10.500000000000005
    vertex 10.0 35.99999999999999 10.500000000000004
  endloop
endfacet
facet normal 1.0 0.0 0.0
  outer loop
    vertex 24.0 7.000000000000001 1.5
    vertex 24.0 4.000000000000001 4.999999999999999
    vertex 24.0 4.000000000000001 1.5
  endloop
endfacet
facet normal 1.0 0.0 0.0
  outer loop
    vertex 24.0 4.000000000000001 4.999999999999999
    vertex 24.0 7.000000000000001 1.5
    vertex 24.0 7.000000000000001 4.999999999999999
  endloop
endfacet
facet normal 1.0 6.323528165002051e-17 -2.181676532974916e-32
  outer loop
    vertex 28.0 5.287437154777307e-16 0.0
    vertex 28.0 4.000000000000001 6.499999999999998
    vertex 28.0 6.099490023003541e-15 10.499999999999998
  endloop
endfacet
facet normal 1.0 6.323528165002051e-17 -2.181676532974916e-32
  outer loop
    vertex 28.0 4.000000000000001 6.499999999999998
    vertex 28.0 5.287437154777307e-16 0.0
    vertex 28.0 37.0 0.0
  endloop
endfacet
facet normal 1.0 6.323528165002051e-17 -2.181676532974916e-32
  outer loop
    vertex 28.0 4.000000000000001 6.499999999999998
    vertex 28.0 37.0 0.0
    vertex 28.0 6.500000000000008 6.499999999999998
  endloop
endfacet
facet normal 1.0 6.323528165002051e-17 -2.181676532974916e-32
  outer loop
    vertex 28.0 6.500000000000008 6.499999999999998
    vertex 28.0 37.0 0.0
    vertex 28.0 6.500000000000008 8.499999999999996
  endloop
endfacet
facet normal 1.0 6.323528165002051e-17 -2.181676532974916e-32
  outer loop
    vertex 28.0 6.099490023003541e-15 10.499999999999998
    vertex 28.0 4.000000000000001 8.499999999999995
    vertex 28.0 37.0 10.499999999999996
  endloop
endfacet
facet normal 1.0 6.323528165002051e-17 -2.181676532974916e-32
  outer loop
    vertex 28.0 4.000000000000001 8.499999999999995
    vertex 28.0 6.099490023003541e-15 10.499999999999998
    vertex 28.0 4.000000000000001 6.499999999999998
  endloop
endfacet
facet normal 1.0 6.323528165002051e-17 -2.181676532974916e-32
  outer loop
    vertex 28.0 37.0 10.499999999999996
    vertex 28.0 4.000000000000001 8.499999999999995
    vertex 28.0 6.500000000000008 8.499999999999996
  endloop
endfacet
facet normal 1.0 6.323528165002051e-17 -2.181676532974916e-32
  outer loop
    vertex 28.0 37.0 10.499999999999996
    vertex 28.0 6.500000000000008 8.499999999999996
    vertex 28.0 37.0 0.0
  endloop
endfacet
facet normal 0.0 1.0 0.0
  outer loop
    vertex 4.0 7.000000000000001 4.999999999999999
    vertex 24.0 7.000000000000001 1.5
    vertex 4.0 7.000000000000001 1.5
  endloop
endfacet
facet normal 0.0 1.0 0.0
  outer loop
    vertex 24.0 7.000000000000001 1.5
    vertex 4.0 7.000000000000001 4.999999999999999
    vertex 24.0 7.000000000000001 4.999999999999999
  endloop
endfacet
facet normal 0.0 -1.0 0.0
  outer loop
    vertex 26.999999999999996 32.99999999999999 4.999999999999999
    vertex 24.0 32.99999999999999 1.5
    vertex 26.999999999999996 32.99999999999999 1.5
  endloop
endfacet
facet normal 0.0 -1.0 0.0
  outer loop
    vertex 24.0 32.99999999999999 1.5
    vertex 26.999999999999996 32.99999999999999 4.999999999999999
    vertex 24.0 32.99999999999999 4.999999999999999
  endloop
endfacet
facet normal 0.0 -1.0 0.0
  outer loop
    vertex 24.0 4.000000000000001 4.999999999999999
    vertex 4.0 4.000000000000001 1.5
    vertex 24.0 4.000000000000001 1.5
  endloop
endfacet
facet normal 0.0 -1.0 0.0
  outer loop
    vertex 4.0 4.000000000000001 1.5
    vertex 24.0 4.000000000000001 4.999999999999999
    vertex 4.0 4.000000000000001 4.999999999999999
  endloop
endfacet
facet normal -1.0 0.0 0.0
  outer loop
    vertex 4.0 7.000000000000001 4.999999999999999
    vertex 4.0 4.000000000000001 1.5
    vertex 4.0 4.000000000000001 4.999999999999999
  endloop
endfacet
facet normal -1.0 0.0 0.0
  outer loop
    vertex 4.0 4.000000000000001 1.5
    vertex 4.0 7.000000000000001 4.999999999999999
    vertex 4.0 7.000000000000001 1.5
  endloop
endfacet
facet normal 1.0 0.0 0.0
  outer loop
    vertex 4.0 35.99999999999999 1.5
    vertex 4.0 32.99999999999999 4.999999999999999
    vertex 4.0 32.99999999999999 1.5
  endloop
endfacet
facet normal 1.0 0.0 0.0
  outer loop
    vertex 4.0 32.99999999999999 4.999999999999999
    vertex 4.0 35.99999999999999 1.5
    vertex 4.0 35.99999999999999 4.999999999999999
  endloop
endfacet
endsolid D1Mini_Case_V01
